<?xml version="1.0" encoding="utf-8"?>
<!-- Generator: Adobe Illustrator 23.0.5, SVG Export Plug-In . SVG Version: 6.00 Build 0)  -->
<svg version="1.1" id="Layer_1" xmlns="http://www.w3.org/2000/svg" xmlns:xlink="http://www.w3.org/1999/xlink" x="0px" y="0px"
	 viewBox="0 0 595.28 841.89" style="enable-background:new 0 0 595.28 841.89;" xml:space="preserve">
<style type="text/css">
	.st0{fill:#562887;}
	.st1{fill:#36A695;}
	.st2{fill:#95195F;}
	.st3{fill:#B8AE8B;}
	.st4{fill:#D6D6D6;}
</style>
<g>
	<g>
		<path class="st0" d="M316.08,399.38c3-0.17,6-0.4,9-0.49c2.74-0.08,5.48-0.02,8.28-0.02c-0.14,0.9-0.81,0.83-1.27,1
			c-5.46,2.1-10.91,4.19-16.05,7.02c-5.69,3.14-7.65,8.25-6.77,14.16c1.49,9.95,5.63,18.79,13.11,25.81
			c1.76,1.65,3.73,3.04,5.96,4.19c-2.53,0.51-8.21-2.73-13.64-7.69c-0.06-0.09-0.13-0.17-0.2-0.26c-0.07-0.1-0.14-0.2-0.2-0.3
			c-0.83-1.64-2.38-2.78-3.28-4.33c-3.31-5.72-5.89-11.76-6.97-18.32c-0.7-4.25,0.05-8.15,3.15-11.45c1.77-1.89,3.9-3.25,5.95-4.73
			c-8.68,0.78-14.52,5.13-17.03,14.26c-1.04-3.1-1.78-5.65-1.78-8.37c0.86-0.71,1.35-1.68,1.86-2.64c0.18-0.03,0.41,0,0.54-0.1
			c4.34-3.48,9.42-5.31,14.74-6.61c1.27-0.31,2.65-0.02,3.83-0.76c0.31-0.05,0.69,0.05,0.82-0.38L316.08,399.38z"/>
		<path class="st1" d="M294.34,409.85c0,2.72,0.74,5.27,1.78,8.37c2.52-9.13,8.36-13.48,17.03-14.26c-2.06,1.48-4.18,2.84-5.95,4.73
			c-3.1,3.3-3.85,7.2-3.15,11.45c1.08,6.56,3.66,12.6,6.97,18.32c0.9,1.55,2.44,2.68,3.28,4.33c-2.62-1.11-4.11-3.47-5.64-5.59
			c-1.76-2.44-4.33-3.17-6.81-4.23c-0.12-0.85-0.68-1.42-1.27-1.97c-3.9-3.68-6.47-8.19-8.19-13.2c-0.86-2.5-1.41-5.11-2.37-7.57
			c-1.69-4.33-5.14-6.01-9.46-4.85c-0.89,0.24-1.79,0.46-2.68,0.69c-3.21-0.37-6.43-0.74-9.64-1.11c0.82-0.69,1.73-0.61,2.63-0.55
			c3.92,0.25,7.81,0.31,11.39-1.72c1.02-0.58,2.15-0.89,3.32-1.06c3.62-0.51,6.1,0.82,7.5,4.19
			C293.61,407.13,293.92,408.51,294.34,409.85z"/>
		<path class="st2" d="M277.87,406.09c0.89-0.23,1.79-0.45,2.68-0.69c4.32-1.16,7.77,0.51,9.46,4.85c0.96,2.46,1.51,5.07,2.37,7.57
			c1.72,5.02,4.29,9.53,8.19,13.2c0.59,0.56,1.14,1.12,1.27,1.97c-3.42-0.97-6.31-2.92-9.03-5.1c-4.06-3.24-6.78-7.37-7.83-12.52
			C284.11,411.14,281,408.6,277.87,406.09z"/>
		<path class="st3" d="M315.31,399.75c-1.18,0.74-2.56,0.45-3.83,0.76c-5.32,1.3-10.4,3.13-14.74,6.61c-0.12,0.1-0.35,0.07-0.54,0.1
			c0.76-2.29,2.65-3.74,4.09-5.53c0.28-0.35,1.07-0.45,0.7-1.19l-0.04,0.04c0.53,0.47,0.74-0.13,0.99-0.34
			c5.57-4.85,12.17-7.03,19.44-7.46c2.24-0.13,4.5-0.33,7.29-0.06c-4.07,1.84-7.71,3.41-11.08,5.49c-0.55,0.34-1.28,0.49-1.51,1.22
			c0,0,0.05-0.01,0.05-0.01C315.71,399.18,315.52,399.48,315.31,399.75z"/>
		<path class="st4" d="M280.12,400.09c-0.03,0.07-0.06,0.31-0.17,0.36c-0.33,0.14-0.54-0.06-0.75-0.33
			c-1.25-1.65-2.21-1.66-3.4-0.02c-0.21,0.29-0.43,0.5-0.73,0.35c-0.37-0.19-0.13-0.54-0.03-0.8c0.59-1.6,1.2-3.2,1.82-4.79
			c0.25-0.65,0.77-0.99,1.12-0.21C278.77,396.38,279.4,398.2,280.12,400.09z M277.47,395.85c-0.24,0.75-0.99,1.36-0.63,2.15
			c0.08,0.18,1.05,0.24,1.17,0.06C278.54,397.25,277.76,396.61,277.47,395.85z"/>
		<path class="st4" d="M295.07,400.07c-0.09,0.14-0.16,0.37-0.28,0.4c-0.35,0.09-0.52-0.15-0.72-0.43
			c-1.09-1.56-2.29-1.57-3.33-0.03c-0.18,0.26-0.29,0.58-0.67,0.46c-0.46-0.14-0.24-0.49-0.15-0.75c0.6-1.6,1.2-3.2,1.82-4.79
			c0.21-0.54,0.69-1.2,1.1-0.36C293.72,396.33,294.34,398.21,295.07,400.07z M292.47,395.92c-0.45,0.67-1.19,1.27-0.65,2.08
			c0.21,0.31,0.97,0.3,1.16,0.03C293.52,397.25,292.69,396.65,292.47,395.92z"/>
		<path class="st4" d="M285.55,400.46c0-2.17,0-4.33,0-6.51c0.81-0.05,0.65,0.51,0.64,0.88c-0.03,0.78-0.02,1.14,1.06,0.94
			c1.69-0.3,1.88,1.04,1.79,2.28c-0.06,0.8,0.45,2.25-0.36,2.26c-0.99,0.02-0.34-1.37-0.5-2.13c-0.14-0.67,0.2-1.66-0.93-1.64
			c-0.97,0.01-1.04,0.81-1.06,1.61C286.17,398.93,286.44,399.74,285.55,400.46z"/>
		<path class="st4" d="M284.48,398.94c-0.1,1.17-0.66,1.57-1.49,1.55c-0.25-0.01-0.74-0.24-0.33-0.72c0.76-0.88,0.76-0.91-0.55-1.39
			c-0.67-0.25-1.3-0.52-1.21-1.35c0.09-0.86,0.77-1.18,1.53-1.31c0.61-0.1,1.17,0.08,1.2,0.74
			C283.69,397.45,283.57,398.47,284.48,398.94z M282.86,396.5c-0.34,0.05-1.04-0.11-0.91,0.64c0.1,0.62,0.78,0.68,1.32,0.76
			c0.53,0.08,0.8-0.17,0.76-0.72C283.97,396.49,283.47,396.5,282.86,396.5z"/>
		<path class="st3" d="M300.99,400.49c-0.59,0.07-1.11,0.07-1.1-0.76c0.02-1.03,0-2.07,0.01-3.1c0-0.37,0.02-0.82,0.48-0.85
			c0.62-0.03,0.57,0.51,0.57,0.92c0.01,1.28,0,2.55,0,3.83C300.95,400.54,300.99,400.49,300.99,400.49z"/>
		<path class="st4" d="M295.77,396.07c0.49,0.02,0.5,0.36,0.63,0.63c0.42,0.87,0.36,1.96,1.28,2.64c0.25,0.18,0.23,0.86-0.26,1.09
			c-0.52,0.24-0.62-0.31-0.74-0.58c-0.43-0.99-0.77-2.02-1.17-3.03C295.34,396.41,295.27,396.1,295.77,396.07z"/>
		<path class="st1" d="M314.5,443.11c0.07,0.09,0.14,0.17,0.2,0.26C314.59,443.32,314.53,443.24,314.5,443.11z"/>
	</g>
</g>
</svg>
