<?xml version="1.0" encoding="utf-8"?>
<!-- Generator: Adobe Illustrator 23.0.5, SVG Export Plug-In . SVG Version: 6.00 Build 0)  -->
<svg version="1.1" id="Layer_1" xmlns="http://www.w3.org/2000/svg" xmlns:xlink="http://www.w3.org/1999/xlink" x="0px" y="0px"
	 viewBox="0 0 1620 1243" style="enable-background:new 0 0 1620 1243;" xml:space="preserve">
<g transform="translate(0.000000,1243.000000) scale(0.100000,-0.100000)">
	<path d="M5546.65,6618.87c-28.33-1.1-57.26-6.29-73.47-13.22c-0.46-0.21-1.69-0.72-2.74-1.14c-6.21-2.53-18.71-9.25-25.67-13.81
		c-23.01-15.07-42.39-36.02-54.89-59.37c-1.27-2.32-2.24-3.72-2.36-3.38c-0.72,2.15-2.45,9.67-2.41,10.6
		c0.04,0.59-0.25,1.9-0.59,2.91c-0.34,0.97-0.63,2.24-0.63,2.79c0,0.51-0.42,1.31-0.93,1.73c-0.55,0.42-1.9,2.32-3.04,4.22
		c-2.66,4.43-7.52,9.71-11.15,12.08c-1.56,1.01-3.17,1.98-3.55,2.11c-0.55,0.17-0.76,0.72-0.76,1.73c0,1.48,0,1.48-3.46,2.66
		c-3.38,1.1-3.88,1.14-12.16,1.18c-6.84,0-9.42-0.17-12.25-0.76c-4.39-0.97-12.84-3.63-13.01-4.14c-0.08-0.21-0.51-0.38-0.97-0.38
		c-0.97,0-13-6.04-14.15-7.09c-0.93-0.89,0.08-0.8-32.26-1.98c-9.16-0.34-24.07-0.8-33.15-1.06c-20.86-0.51-29.6-0.8-33.53-1.14
		l-3.13-0.25l0.25-2.7c0.08-1.48,0.34-2.83,0.51-3s7.9-0.42,17.23-0.59c20.86-0.34,33.06-1.01,47.8-2.62
		c6.67-0.76,14.82-1.86,17.65-2.41c1.14-0.21,3.67-0.38,5.62-0.38h3.55v-2.32c0-2.24,0.04-2.32,2.03-3.8
		c1.1-0.84,4.65-3.97,7.94-6.97c9.84-8.99,17.27-17.99,20.82-25.12c1.86-3.8,2.36-5.45,4.26-13.93c1.48-6.42,5.78-20.06,6.38-20.06
		c0.21,0,0.38-0.38,0.38-0.84s0.21-0.84,0.42-0.84c0.25,0,0.42-0.3,0.42-0.68c0-0.8,3.88-8.61,6.42-12.96
		c8.66-14.86,22.72-29.43,39.61-41.08c9.29-6.42,19.13-11.95,31.37-17.65c2.32-1.06,4.39-1.94,4.69-1.94c0.3,0,0.89-0.3,1.35-0.63
		c0.42-0.34,1.31-0.63,1.98-0.63c0.63,0,1.14-0.17,1.14-0.42c0-0.21,0.42-0.42,0.89-0.42c0.51,0,1.14-0.3,1.39-0.68
		c0.34-0.42,1.44-0.76,3.08-0.89c1.98-0.17,2.62-0.42,2.79-0.97c0.13-0.46,0.93-0.93,2.24-1.22c1.14-0.3,2.2-0.72,2.32-0.97
		c0.17-0.25,1.14-0.55,2.24-0.63c1.06-0.13,1.94-0.42,1.94-0.59c0-0.21,0.3-0.38,0.63-0.38c0.34,0,0.63-0.17,0.63-0.42
		c0-0.21,0.76-0.42,1.69-0.42c1.22,0,1.69-0.17,1.69-0.63c0-0.42,0.46-0.63,1.48-0.63c0.8,0,1.48-0.17,1.48-0.42
		c0-0.21,1.06-1.69,2.32-3.25c1.27-1.6,4.14-5.15,6.42-7.94c13.26-16.47,30.32-33.53,45.94-46.07
		c10.98-8.82,23.31-16.68,34.75-22.29c6.08-2.91,6.04-2.91,12.96-3.97c1.39-0.21,4.35-0.97,6.54-1.69
		c8.78-2.79,20.65-5.57,23.9-5.57h1.73l0.3,1.94c0.55,4.18,0.55,4.18-2.36,5.02c-6.8,1.94-11.11,3.34-11.23,3.63
		c-0.08,0.17-1.48,0.55-3.17,0.8s-3.38,0.68-3.76,0.89c-0.42,0.21-0.97,0.38-1.27,0.38c-0.3,0-0.97,0.46-1.52,1.01
		c-0.51,0.59-1.77,1.52-2.74,2.11c-2.91,1.69-10.43,7.01-14.06,9.96c-17.31,14.1-32.72,33.02-45.48,55.82
		c-4.31,7.73-9.58,18.33-9.58,19.3c0,0.42-0.3,1.01-0.63,1.31c-0.34,0.3-0.63,1.18-0.63,1.94c0,1.01-0.21,1.44-0.63,1.44
		c-0.42,0-0.63,0.42-0.63,1.44c0,0.89-0.25,1.52-0.63,1.69c-0.38,0.13-0.63,0.76-0.63,1.52c0,0.68-0.17,1.27-0.42,1.27
		c-0.21,0-0.42,0.38-0.42,0.8c0,1.22-0.46,2.15-1.06,2.15c-0.3,0-0.63,0.76-0.8,1.69c-0.17,1.1-0.46,1.69-0.89,1.69
		c-0.46,0-0.63,0.51-0.63,2.11c0,1.82-0.13,2.11-0.84,2.11c-0.55,0-0.84,0.3-0.84,0.84c0,0.46-0.17,0.84-0.38,0.84
		c-0.17,0-0.63,1.01-1.01,2.24c-0.34,1.18-1.44,4.48-2.41,7.26c-7.39,21.32-10.39,39.61-8.83,53.75c1.06,9.75,4.52,22.04,6.12,22.04
		c0.38,0,0.59,0.46,0.59,1.27c0,2.53,4.69,11.02,9.5,17.27c4.6,6,6.97,7.98,16.34,13.93c6.88,4.31,20.18,11.44,21.41,11.44
		c0.46,0,0.97,0.21,1.1,0.42c0.46,0.72,4.35,2.53,5.45,2.53c0.63,0,1.27,0.34,1.52,0.84c0.34,0.63,0.89,0.84,2.07,0.84
		c1.14,0,1.82,0.3,2.49,1.06c1.1,1.27,3.5,2.32,5.36,2.32c0.76,0,1.6,0.3,1.9,0.63c0.3,0.34,1.06,0.63,1.73,0.63
		c0.68,0,1.22,0.17,1.22,0.38c0,0.21,0.46,0.51,1.06,0.63c0.59,0.17,1.06,0.51,1.06,0.84c0,0.38,0.72,0.63,2.2,0.76
		c1.22,0.13,2.28,0.46,2.36,0.72s0.59,0.46,1.14,0.46c0.55,0,1.27,0.3,1.65,0.63c0.34,0.34,0.97,0.63,1.39,0.63s1.14,0.25,1.6,0.59
		c0.46,0.3,1.56,0.68,2.45,0.84s1.56,0.55,1.56,0.84c0,0.72,0.93,1.1,2.79,1.1c0.8,0,1.44,0.17,1.44,0.34
		c0,0.46,1.94,1.35,2.96,1.35c0.55,0,0.84,0.3,0.84,0.84c0,0.72,0.3,0.84,1.9,0.84c1.06,0,1.9,0.21,1.9,0.42
		c0,0.25,0.63,0.42,1.39,0.42c0.89,0,1.6,0.3,1.98,0.84c0.46,0.63,1.1,0.84,2.41,0.84c1.01,0,1.82,0.17,1.82,0.38
		c0,0.17,0.51,0.84,1.1,1.48c0.93,0.93,1.52,1.1,3.38,1.1c1.73,0,2.28,0.17,2.28,0.63c0,0.38,0.38,0.63,1.01,0.63
		c0.55,0,1.1,0.17,1.18,0.38c0.08,0.25,1.1,0.68,2.24,0.97c1.18,0.3,2.28,0.76,2.45,1.06c0.21,0.34,1.27,0.55,2.83,0.55
		c1.39,0,2.53,0.17,2.53,0.38s0.68,0.51,1.48,0.63c0.8,0.17,1.48,0.46,1.48,0.63c0,0.21,0.42,0.46,0.89,0.59
		c0.89,0.25,0.93,0.42,0.68,3.08c-0.17,1.56-0.34,2.91-0.46,3c-1.06,1.1-45.52,1.22-61.69,0.17c-13.09-0.8-29.9-2.45-33.57-3.29
		c-1.31-0.3,0.97,1.22,9.29,6.12c7.81,4.64,33.78,17.69,35.81,18.07c0.84,0.13,1.77,0.51,1.98,0.8c0.25,0.3,1.86,1.18,3.59,1.94
		c1.73,0.76,3.67,1.77,4.31,2.2c0.59,0.46,1.31,0.72,1.52,0.55c0.21-0.13,0.55,0.17,0.68,0.72c0.25,0.89,0.3,0.89,0.84,0.21
		c0.76-1.06,1.22-0.97,0.59,0.08c-0.46,0.72-0.42,0.93,0.08,1.27c0.72,0.46,5.32,0.97,6.8,0.76c0.97-0.13,1.01,0,1.14,2.11
		c0.21,3.8,0.72,3.67-14.23,3.72C5555.85,6619,5548.51,6618.96,5546.65,6618.87z M5564.17,6614.65c-2.58-0.97-10.35-4.43-10.56-4.69
		c-0.13-0.17-1.06-0.59-2.11-0.93c-2.96-0.93-29.05-14.19-36.1-18.33c-6.42-3.8-17.14-10.64-17.52-11.23
		c-0.13-0.17-2.03-0.63-4.22-1.01c-10.09-1.82-22.17-4.56-30.82-7.09c-4.98-1.44-14.44-4.6-16.55-5.53
		c-0.76-0.34-2.45-1.01-3.72-1.52c-14.06-5.32-26.52-12.2-36.31-20.14l-3.55-2.87l1.86,2.66c11.1,15.83,27.19,31.25,44.42,42.52
		c7.85,5.15,22.29,12.84,24.15,12.84c0.55,0,1.22,0.3,1.52,0.63c0.3,0.34,0.84,0.63,1.18,0.63c0.38,0,1.35,0.46,2.15,1.01
		c3.34,2.28,19.34,6.76,31.75,8.87c15.67,2.7,32.85,4.22,49.36,4.35C5562.23,6614.86,5564.51,6614.78,5564.17,6614.65z
		 M5595.63,6579.9c-0.46-0.17-1.98-0.68-3.38-1.1c-1.39-0.38-2.62-0.84-2.74-0.97c-0.25-0.3-7.69-2.96-9.16-3.29
		c-0.55-0.13-0.97-0.38-0.97-0.59s-0.3-0.38-0.68-0.38c-0.84,0-7.52-2.62-7.68-3.04c-0.08-0.17-0.46-0.34-0.84-0.34
		s-1.22-0.25-1.86-0.59s-1.77-0.72-2.53-0.89c-0.76-0.17-1.48-0.46-1.6-0.59c-0.13-0.17-0.89-0.51-1.69-0.76
		c-3.34-1.06-6.54-2.66-6.67-3.25c-0.08-0.42-0.59-0.68-1.44-0.68c-1.6,0-4.56-0.84-4.56-1.35c0-0.17-0.46-0.34-1.06-0.34
		s-1.06-0.17-1.06-0.34s-0.89-0.59-1.98-0.89c-1.14-0.34-2.41-0.84-2.87-1.18c-0.46-0.3-1.18-0.55-1.6-0.55
		c-0.38,0-0.84-0.3-0.97-0.63c-0.17-0.34-0.68-0.63-1.18-0.63c-1.14-0.04-5.11-1.73-6.21-2.66c-0.42-0.42-1.06-0.72-1.39-0.72
		c-0.97,0-3.63-1.27-3.63-1.69c0-0.25-0.38-0.42-0.89-0.42c-0.8,0-3.04-1.01-11.78-5.45c-13.17-6.67-25.46-14.48-29.18-18.49
		c-4.05-4.39-8.28-10.43-10.77-15.41c-0.84-1.69-1.69-3.42-1.9-3.8c-0.21-0.42-0.38-1.06-0.38-1.39s-0.17-0.63-0.42-0.63
		c-0.21,0-0.42-0.46-0.42-1.06c0-0.59-0.17-1.06-0.42-1.06c-0.21,0-0.42-0.34-0.42-0.76s-0.17-0.93-0.38-1.14
		c-0.59-0.63-2.87-8.4-3.8-12.88c-2.45-11.91-2.36-26.56,0.17-41.38c1.1-6.5,4.35-18.45,7.39-27.23c0.97-2.79,2.03-6,2.41-7.18
		c0.34-1.14,0.76-2.2,0.93-2.32c0.17-0.13,0.72-1.6,1.27-3.25c0.51-1.69,1.22-3.34,1.56-3.67s0.59-1.1,0.59-1.69s0.17-1.1,0.34-1.1
		c0.38,0,1.35-2.49,1.35-3.5c0-0.38,0.13-0.72,0.34-0.72c0.34,0,0.68-0.72,2.41-5.15c0.63-1.56,1.39-3.04,1.73-3.34
		c0.34-0.25,0.59-0.84,0.59-1.27c0-0.97,5.28-11.57,9.58-19.3c12.67-22.63,28.46-42.1,45.22-55.57c1.65-1.35,3.04-2.53,3.04-2.62
		c0-0.59-13.22,7.14-18.37,10.73c-4.69,3.25-16.47,12.71-21.53,17.31c-10.6,9.63-20.65,22-29.64,36.61
		c-4.6,7.47-11.95,21.62-11.95,22.97c0,0.46-0.17,0.97-0.42,1.1c-0.21,0.13-0.42,0.72-0.42,1.31c0,0.59-0.25,1.01-0.63,1.01
		c-0.34,0-0.72,0.59-0.89,1.48c-0.13,0.8-0.42,1.48-0.63,1.48c-0.21,0-0.38,0.84-0.38,1.9c0,1.31-0.21,1.98-0.63,2.15
		c-0.34,0.17-0.76,1.01-0.89,1.9c-0.21,1.14-0.51,1.65-0.97,1.65c-0.89,0.04-1.86,1.98-4.35,9.04
		c-5.32,15.07-10.39,34.2-12.63,47.76c-1.65,9.97-1.14,19.93,1.52,29.14c1.31,4.52,2.24,6.54,2.96,6.54c0.25,0,0.72,1.01,1.01,2.24
		c0.84,3.93,7.14,13.81,12.41,19.55c5.66,6.16,13.64,12.58,21.62,17.35c5.28,3.17,12.96,6.88,14.27,6.88c0.59,0,1.18,0.17,1.35,0.38
		c0.13,0.21,0.93,0.63,1.82,0.89c4.01,1.22,3.88,1.1,3.88,4.01c0,3.12-0.08,3.17-4.14,3.17c-5.49-0.04-15.37-1.44-25.04-3.63
		c-4.69-1.06-17.69-5.19-18.62-5.95c-0.3-0.25-1.01-0.59-1.6-0.76c-2.36-0.63-9.04-3.97-13.6-6.71c-11.4-6.92-22-17.14-29.18-28.12
		c-2.83-4.39-7.05-12.29-7.05-13.22c0-0.42-0.17-0.72-0.42-0.72c-0.21,0-0.51-0.68-0.68-1.48c-0.13-0.8-0.38-1.48-0.55-1.48
		s-0.63-1.1-1.06-2.41c-0.42-1.35-0.97-2.83-1.22-3.29c-0.21-0.46-0.89-2.45-1.39-4.39c-0.55-1.94-1.06-3.59-1.14-3.67
		c-0.04-0.08-1.01,3.04-2.11,6.92c-3.76,13.3-5.78,24.07-5.19,27.28c0.25,1.22,0.46,1.52,1.31,1.52c1.1,0,1.82,0.76,6.71,7.39
		c5.62,7.64,11.82,13.26,21.83,19.89c5.4,3.55,17.61,10.18,19.3,10.43c0.51,0.08,1.06,0.25,1.18,0.42c0.17,0.17,0.63,0.3,1.06,0.3
		c0.38,0,2.58,0.97,4.86,2.11c8.49,4.39,25.8,9.58,44.29,13.3c5.74,1.14,8.15,1.44,14.15,1.6c1.98,0.08,4.65,0.46,5.91,0.84
		c4.94,1.44,22,3.29,38.64,4.14c5.11,0.25,9.37,0.55,9.46,0.63s8.74,0.17,19.21,0.13
		C5588.11,6580.28,5596.09,6580.11,5595.63,6579.9z M5356.98,6564.74l2.83-0.93v-1.65c0-1.31,0.17-1.69,0.97-1.94
		c2.03-0.59,6.76-4.18,9.63-7.26c3.25-3.5,6.71-8.83,7.81-11.87c0.63-1.82,0.84-2.32,1.82-4.77c2.07-5.24,3.76-13.26,5.11-24.19
		c0.84-7.01,2.03-13.01,4.26-21.32c2.2-8.19,5.02-16.97,5.7-17.61c0.8-0.8,5.11-0.55,5.7,0.34c0.21,0.34,0.34,1.82,0.34,3.34
		c-0.04,2.74,1.27,8.78,2.36,10.98c0.3,0.59,0.8,1.9,1.1,2.91c0.3,1.01,0.8,2.07,1.1,2.41c0.3,0.3,0.55,0.76,0.55,1.01
		c0,0.84,5.74,11.61,8.23,15.45c8.7,13.34,20.94,24.28,35.68,31.88c1.98,1.01,3.8,2.03,4.01,2.28c0.25,0.3,1.27,0.72,2.32,1.01
		c1.06,0.3,2.11,0.72,2.32,0.89c0.93,0.76,13.81,4.77,19,5.87c9.04,1.98,8.91,1.98,4.01-0.72c-10.56-5.87-15.45-9.42-23.18-16.76
		c-6.59-6.29-13.77-16.64-16.51-23.86c-0.3-0.8-0.89-2.28-1.31-3.21c-1.18-2.7-2.87-8.82-3.63-13.26c-1.01-5.79-1.01-20.52,0-26.81
		c0.93-5.57,3.21-16,5.24-23.86c2.87-11.19,8.99-30.15,10.47-32.39c0.34-0.51,0.63-1.31,0.63-1.82c0-0.46,0.21-0.84,0.42-0.84
		c0.25,0,0.42-0.46,0.42-1.01c0-0.55,0.3-1.1,0.63-1.27c0.38-0.13,0.63-0.76,0.63-1.52c0-0.68,0.21-1.27,0.42-1.27
		c0.25,0,0.42-0.38,0.42-0.84c0-0.46,0.21-0.84,0.42-0.84c0.25,0,0.42-0.3,0.42-0.68c0-0.72,0.42-1.65,4.81-10.94
		c4.69-9.84,13.43-24.7,18.11-30.7c4.73-6.16-7.56,7.56-14.53,16.17c-7.6,9.37-7.98,9.96-7.98,11.48c0,1.06-0.25,1.52-0.93,1.9
		c-1.56,0.76-5.91,2.11-7.73,2.45c-0.93,0.13-2.15,0.51-2.74,0.8c-3.88,1.94-4.77,2.32-5.32,2.32c-0.93,0-2.74,1.22-4.18,2.74
		c-0.68,0.76-4.01,3.63-7.39,6.46c-12.84,10.64-22.84,22.55-32.89,39.31c-3.12,5.19-7.22,12.92-8.53,16.09
		c-0.51,1.27-1.18,2.62-1.44,2.96c-0.3,0.34-0.68,1.6-0.84,2.74c-0.17,1.18-0.55,2.41-0.84,2.74c-0.3,0.34-0.68,1.27-0.84,2.03
		c-0.13,0.72-0.46,1.35-0.68,1.35c-0.21,0-0.38,0.3-0.38,0.68c0,0.34-0.3,0.93-0.63,1.27c-0.34,0.38-0.63,1.01-0.63,1.48
		c0,0.42-0.25,0.8-0.59,0.8s-0.97,0.97-1.44,2.24c-1.39,3.72-4.98,15.03-6.38,19.93c-0.72,2.58-2.15,7.77-3.25,11.61
		c-1.1,3.84-2.11,8.15-2.28,9.58c-0.25,2.32-0.76,3.55-1.73,4.35c-0.13,0.13-1.14,1.94-2.2,4.01c-3.8,7.31-9.8,14.06-15.67,17.52
		c-1.73,1.06-3.21,2.07-3.21,2.24c0,0.68-1.22,1.56-2.07,1.56c-0.46,0-0.93,0.17-1.06,0.38c-0.13,0.21-1.82,0.8-3.72,1.35
		c-3.12,0.89-4.39,0.97-11.32,0.97c-7.05,0-8.28-0.13-12.46-1.14c-2.53-0.63-5.07-1.48-5.62-1.82c-0.63-0.42-3.25-0.93-6.76-1.31
		c-5.19-0.55-6.21-0.55-10.01,0.04c-10.89,1.69-18.2,2.53-28.59,3.29c-7.14,0.51-9.5,1.18-4.22,1.18c10.73,0,46.19,1.6,49.7,2.28
		c0.46,0.08,1.1-0.08,1.44-0.34c0.51-0.38,0.55-0.34,0.34,0.25c-0.34,0.89,0.8,1.6,2.53,1.6c1.14,0,7.47,3.04,7.94,3.8
		c0.17,0.25,0.68,0.42,1.14,0.42c1.27,0,6.33,1.69,7.14,2.41c0.34,0.3,0.8,0.55,0.97,0.55s0.59,0.25,0.89,0.59
		c0.63,0.63,5.83,2.11,10.51,3.04C5346.08,6566.17,5353.35,6565.88,5356.98,6564.74z M5335.32,6545.1c2.62-0.72,3.21-1.06,3.29-1.82
		c0.08-0.72,0.42-0.97,1.14-0.97c0.55,0,1.06-0.13,1.14-0.34c0.08-0.17,1.56-1.22,3.34-2.32c5.91-3.63,11.7-10.18,15.45-17.4
		c1.06-2.07,2.11-3.84,2.32-3.93c0.17-0.08,0.34-0.72,0.34-1.39c0-0.68,0.13-1.22,0.34-1.22c0.17,0,0.51-0.8,0.76-1.77
		c0.25-1.01,1.35-4.94,2.45-8.78s2.74-9.71,3.72-13.09c2.2-7.85,7.05-22.13,7.56-22.29c0.21-0.08,0.38-0.63,0.38-1.18
		s0.21-1.01,0.42-1.01c0.25,0,0.42-0.3,0.42-0.63c0-0.34,0.21-0.63,0.42-0.63c0.25,0,0.42-0.55,0.42-1.27
		c0-0.68,0.17-1.27,0.38-1.27c0.21,0,0.46-0.55,0.59-1.22c0.13-0.68,0.51-1.48,0.84-1.77c0.3-0.34,0.72-1.18,0.89-1.86
		c0.17-0.72,1.65-3.97,3.29-7.3c9.88-20.31,24.03-39.14,38.55-51.47c1.77-1.52,1.9-1.73,0.84-1.31c-0.68,0.3-1.56,0.72-1.9,1.01
		c-0.34,0.25-1.14,0.59-1.77,0.76c-0.8,0.17-1.18,0.55-1.18,1.1c0,0.68-0.3,0.84-1.48,0.84c-1.86,0-7.6,2.79-15.71,7.69
		c-20.82,12.46-35.98,26.31-47.29,43.2c-3.88,5.79-9.84,17.19-9.84,18.79c0,0.34-0.25,0.89-0.55,1.22
		c-0.34,0.38-0.84,1.35-1.14,2.15c-0.34,0.8-0.72,1.56-0.89,1.69c-0.97,0.72-5.53,18.03-6.25,23.81c-0.21,1.82-0.55,3.46-0.76,3.59
		c-0.21,0.13-1.14,1.6-2.03,3.25c-2.24,4.27-6.08,9.46-10.73,14.74c-3.97,4.43-13.98,13.93-17.86,16.89
		c-1.14,0.84-2.03,1.69-2.03,1.86c0,0.21,1.77,0.55,3.97,0.8s4.43,0.76,4.98,1.1c1.06,0.72,7.18,2.28,10.89,2.79
		C5326.36,6546.58,5331.6,6546.16,5335.32,6545.1z"/>
</g>
</svg>
